# xmcd
#
# Track frame offsets: 
#        150
#        20845
#        43692
#        69687
#        95215
#        116817
#        143587
#        165070
#        187117
#        208645
#        234522
#        253540
#        289697
#
# Disc length: 4127 seconds
#
# Revision: 2
# Processed by: cddbd v1.5.2PL0 Copyright (c) Steve Scherf et al.
# Submitted via: ExactAudioCopyFreeDBPlugin 1.0
#
DISCID=be101d0d
DTITLE=MIGHTY SAM McCLAIN - Soul Survivor - The Best Of Mighty Sam McC
DTITLE=lain
DYEAR=1999
DGENRE=Soul
TTITLE0=Too Proud
TTITLE1=Can You Stand The Test Of Love
TTITLE2=Who Made You Cry?
TTITLE3=New Man In Town
TTITLE4=What You Want Me To Do?
TTITLE5=Where You Been So Long?
TTITLE6=Honey Chile
TTITLE7=Here I Go Falling In Love Again
TTITLE8=Lord Will Make A Way
TTITLE9=Hanging On The Cross
TTITLE10=I'm Gonna Love You
TTITLE11=When The Hurt Is Over
TTITLE12=Give It Up To Love
EXTD=
EXTT0=
EXTT1=
EXTT2=
EXTT3=
EXTT4=
EXTT5=
EXTT6=
EXTT7=
EXTT8=
EXTT9=
EXTT10=
EXTT11=
EXTT12=
PLAYORDER=
